<svg xmlns="http://www.w3.org/2000/svg" version="1.1" xlink="http://www.w3.org/1999/xlink" xmlns:svgjs="http://svgjs.com/svgjs" width="100%" height="100%" preserveAspectRatio="xMidYMid meet" viewBox="0 -0.0000010856191465791198 174.92697143554688 147.00001525878906" overflow="visible">
    <defs id="SvgjsDefs91728"></defs>
    <g id="SvgjsG91729" transform="scale(0.7980427149683391)" opacity="1">
    <g id="SvgjsG91730" class="Vc9AvzkCRM" transform="translate(40.60233509321273, -10.295752517733941) scale(1.378701465986531)" light-content="false" non-strokable="false" fill="#166ebb">
    <path d="M74.715 22.215c4.035-.785 6.68-4.68 5.894-8.715s-4.68-6.68-8.714-5.894c-4.035.785-6.68 4.68-5.895 8.715.785 4.035 4.68 6.68 8.715 5.894zm13.64 21.64l-8.93-5.75C77.461 35.675 67.82 23.89 67.82 23.89c-.965-1.145-2.105-1.535-3.214-1.5-.465-.145-1-.215-1.57-.145l-15.93 1.75h-.286c-.894.145-1.715.57-2.32 1.32l-8.785 11.356c-.43.535-.57 1.105-.606 1.68-.644-.18-1.285-.32-1.965-.32a6.948 6.948 0 0 0-6.394 4.214l-5.07-2.356c-1.68-.785-3.68-.035-4.465 1.645l-6.606 14.18c-.785 1.68-.035 3.68 1.645 4.465l22.215 10.32c1.68.785 3.68.035 4.464-1.645l6.606-14.18c.785-1.68.035-3.68-1.645-4.465l-4.5-2.105c.465-.93.75-1.965.75-3.07 0-1.32-.394-2.536-1-3.57a3.053 3.053 0 0 0 1.145-.715l9.105-8.75c1.215-.145 3.145-.356 5.215-.57l-2.144 21.104s0 .215-.035.32V68.57l-9.75 13.5c-.965 1.32-.856 3.18.32 4.355 1.32 1.32 3.465 1.356 4.785 0l13.32-13.105c.785-.75 1.18-1.894 1.18-3.035l.965-12.32 10.855 12.57c.965 4.25 4.394 19.215 4.394 19.215 1.106 4.465 7.785 3.144 7.07-1.395L82.14 67.75c.716-.07-12.394-19.07-12.644-19.645-.18-.285-.395-.5-.606-.715l1.57-7.285 3 3.645.215.25c0 .68 11.25 4.855 11.895 5.25 3.356 1.43 5.93-3.465 2.82-5.43zm-58.75-.25c.57-1.355 1.895-2.32 3.465-2.32 2.07 0 3.75 1.68 3.75 3.75 0 .644-.18 1.18-.465 1.714z"></path>
    </g>
        <g id="SvgjsG91731" class="text" transform="translate(108, 183.72066650922557) scale(1)" light-content="false" fill="#166ebb">
        <path d="M-105.27 -2.1C-103.45 -0.38 -100.98 0.48 -97.86 0.48C-94.42 0.48 -91.51 -0.55 -89.13 -2.61C-86.75 -4.67 -85.36 -7.4 -84.96 -10.8L-81.18 -41.28C-81.14 -41.48 -81.18 -41.65 -81.3 -41.79C-81.42 -41.93 -81.58 -42 -81.78 -42L-88.62 -42C-88.82 -42 -88.99 -41.93 -89.13 -41.79C-89.27 -41.65 -89.36 -41.48 -89.4 -41.28L-93.18 -10.68C-93.3 -9.52 -93.71 -8.58 -94.41 -7.86C-95.11 -7.14 -95.96 -6.78 -96.96 -6.78C-97.8 -6.78 -98.47 -7.07 -98.97 -7.65C-99.47 -8.23 -99.72 -8.98 -99.72 -9.9C-99.72 -10.26 -99.7 -10.52 -99.66 -10.68L-99.12 -14.94C-99.12 -15.42 -99.34 -15.66 -99.78 -15.66L-106.56 -15.66C-106.76 -15.66 -106.93 -15.59 -107.07 -15.45C-107.21 -15.31 -107.3 -15.14 -107.34 -14.94L-107.88 -10.8C-107.96 -10 -108 -9.42 -108 -9.06C-108 -6.14 -107.09 -3.82 -105.27 -2.1Z M-65.85 -2.1C-64.03 -0.38 -61.58 0.48 -58.5 0.48C-55.14 0.48 -52.28 -0.56 -49.92 -2.64C-47.56 -4.72 -46.16 -7.52 -45.72 -11.04C-45.64 -11.84 -45.6 -12.4 -45.6 -12.72C-45.6 -14.28 -45.89 -15.66 -46.47 -16.86C-47.05 -18.06 -47.87 -19.19 -48.93 -20.25C-49.99 -21.31 -51.5 -22.64 -53.46 -24.24C-55.22 -25.76 -56.43 -26.94 -57.09 -27.78C-57.75 -28.62 -58.08 -29.54 -58.08 -30.54L-58.02 -31.26C-57.86 -32.5 -57.45 -33.47 -56.79 -34.17C-56.13 -34.87 -55.34 -35.22 -54.42 -35.22C-53.54 -35.22 -52.84 -34.92 -52.32 -34.32C-51.8 -33.72 -51.54 -32.92 -51.54 -31.92C-51.54 -31.56 -51.56 -31.3 -51.6 -31.14L-51.78 -29.52C-51.82 -29.32 -51.78 -29.15 -51.66 -29.01C-51.54 -28.87 -51.38 -28.8 -51.18 -28.8L-44.52 -28.8C-44.32 -28.8 -44.14 -28.87 -43.98 -29.01C-43.82 -29.15 -43.74 -29.32 -43.74 -29.52L-43.56 -30.96C-43.48 -31.84 -43.44 -32.46 -43.44 -32.82C-43.44 -35.78 -44.35 -38.13 -46.17 -39.87C-47.99 -41.61 -50.44 -42.48 -53.52 -42.48C-56.88 -42.48 -59.71 -41.46 -62.01 -39.42C-64.31 -37.38 -65.66 -34.66 -66.06 -31.26C-66.14 -30.46 -66.18 -29.86 -66.18 -29.46C-66.18 -27.66 -65.83 -26.05 -65.13 -24.63C-64.43 -23.21 -63.59 -22.01 -62.61 -21.03C-61.63 -20.05 -60.32 -18.9 -58.68 -17.58C-56.76 -15.98 -55.47 -14.79 -54.81 -14.01C-54.15 -13.23 -53.82 -12.32 -53.82 -11.28C-53.82 -10 -54.19 -8.93 -54.93 -8.07C-55.67 -7.21 -56.56 -6.78 -57.6 -6.78C-58.44 -6.78 -59.11 -7.08 -59.61 -7.68C-60.11 -8.28 -60.36 -9.1 -60.36 -10.14C-60.36 -10.5 -60.34 -10.76 -60.3 -10.92L-60.12 -12.42C-60.08 -12.62 -60.12 -12.79 -60.24 -12.93C-60.36 -13.07 -60.52 -13.14 -60.72 -13.14L-67.44 -13.14C-67.64 -13.14 -67.81 -13.07 -67.95 -12.93C-68.09 -12.79 -68.18 -12.62 -68.22 -12.42L-68.46 -10.5C-68.54 -9.78 -68.58 -9.24 -68.58 -8.88C-68.58 -6.08 -67.67 -3.82 -65.85 -2.1Z M-6.75 -39.18C-8.45 -41.1 -10.76 -42.06 -13.68 -42.06L-25.44 -42.06C-25.64 -42.06 -25.81 -41.99 -25.95 -41.85C-26.09 -41.71 -26.18 -41.54 -26.22 -41.34L-31.2 -0.72C-31.24 -0.52 -31.2 -0.35 -31.08 -0.21C-30.96 -0.07 -30.8 0 -30.6 0L-23.82 0C-23.62 0 -23.44 -0.07 -23.28 -0.21C-23.12 -0.35 -23.02 -0.52 -22.98 -0.72L-21.06 -16.68C-20.98 -16.88 -20.86 -16.98 -20.7 -16.98L-16.38 -16.98C-13.22 -16.98 -10.53 -18.1 -8.31 -20.34C-6.09 -22.58 -4.76 -25.56 -4.32 -29.28C-4.24 -29.8 -4.2 -30.56 -4.2 -31.56C-4.2 -34.72 -5.05 -37.26 -6.75 -39.18ZM-13.86 -25.38C-14.78 -24.18 -15.94 -23.58 -17.34 -23.58L-19.92 -23.58C-20.08 -23.58 -20.16 -23.68 -20.16 -23.88L-18.84 -34.44C-18.84 -34.64 -18.74 -34.74 -18.54 -34.74L-15.96 -34.74C-14.88 -34.74 -14.03 -34.35 -13.41 -33.57C-12.79 -32.79 -12.48 -31.7 -12.48 -30.3C-12.48 -28.22 -12.94 -26.58 -13.86 -25.38Z M22.74 -0.66C22.74 -0.22 22.96 0 23.4 0L30.42 0C30.86 0 31.08 -0.22 31.08 -0.66L31.08 -0.78L27.54 -41.34C27.54 -41.78 27.32 -42 26.88 -42L19.02 -42C18.58 -42 18.3 -41.78 18.18 -41.34L4.68 -0.78C4.44 -0.26 4.6 0 5.16 0L11.94 0C12.38 0 12.66 -0.22 12.78 -0.66L14.52 -6.48C14.56 -6.64 14.7 -6.72 14.94 -6.72L22.2 -6.72C22.28 -6.72 22.36 -6.69 22.44 -6.63C22.52 -6.57 22.54 -6.5 22.5 -6.42ZM16.92 -13.26C16.72 -13.26 16.64 -13.36 16.68 -13.56L21.36 -29.04C21.4 -29.16 21.46 -29.22 21.54 -29.22C21.62 -29.22 21.66 -29.16 21.66 -29.04L22.2 -13.56C22.2 -13.36 22.12 -13.26 21.96 -13.26Z M49.2 -2.19C51.04 -0.41 53.54 0.48 56.7 0.48C60.18 0.48 63.12 -0.59 65.52 -2.73C67.92 -4.87 69.34 -7.74 69.78 -11.34L69.84 -12C69.92 -12.44 69.72 -12.66 69.24 -12.66L62.46 -12.96C62.26 -12.96 62.09 -12.89 61.95 -12.75C61.81 -12.61 61.72 -12.44 61.68 -12.24L61.5 -10.62C61.34 -9.46 60.9 -8.53 60.18 -7.83C59.46 -7.13 58.58 -6.78 57.54 -6.78C56.66 -6.78 55.95 -7.07 55.41 -7.65C54.87 -8.23 54.6 -9 54.6 -9.96C54.6 -10.24 54.62 -10.46 54.66 -10.62L57.18 -31.32C57.34 -32.48 57.78 -33.42 58.5 -34.14C59.22 -34.86 60.08 -35.22 61.08 -35.22C62 -35.22 62.73 -34.93 63.27 -34.35C63.81 -33.77 64.08 -33 64.08 -32.04C64.08 -31.72 64.06 -31.48 64.02 -31.32L63.84 -29.76C63.8 -29.32 64 -29.1 64.44 -29.1L71.28 -29.4C71.48 -29.4 71.65 -29.47 71.79 -29.61C71.93 -29.75 72.02 -29.92 72.06 -30.12L72.18 -30.78C72.26 -31.58 72.3 -32.18 72.3 -32.58C72.3 -35.62 71.38 -38.03 69.54 -39.81C67.7 -41.59 65.18 -42.48 61.98 -42.48C58.46 -42.48 55.51 -41.42 53.13 -39.3C50.75 -37.18 49.36 -34.34 48.96 -30.78L46.56 -11.34C46.48 -10.46 46.44 -9.82 46.44 -9.42C46.44 -6.38 47.36 -3.97 49.2 -2.19Z M110.19 -34.95C110.33 -35.09 110.42 -35.26 110.46 -35.46L111.18 -41.28C111.22 -41.48 111.18 -41.65 111.06 -41.79C110.94 -41.93 110.78 -42 110.58 -42L90.6 -42C90.4 -42 90.23 -41.93 90.09 -41.79C89.95 -41.65 89.86 -41.48 89.82 -41.28L84.84 -0.72C84.8 -0.52 84.84 -0.35 84.96 -0.21C85.08 -0.07 85.24 0 85.44 0L105.42 0C105.62 0 105.79 -0.07 105.93 -0.21C106.07 -0.35 106.16 -0.52 106.2 -0.72L106.92 -6.54C106.96 -6.74 106.91 -6.91 106.77 -7.05C106.63 -7.19 106.46 -7.26 106.26 -7.26L94.14 -7.26C93.9 -7.26 93.82 -7.36 93.9 -7.56L95.04 -17.1C95.04 -17.3 95.16 -17.4 95.4 -17.4L102.36 -17.4C102.56 -17.4 102.73 -17.47 102.87 -17.61C103.01 -17.75 103.1 -17.92 103.14 -18.12L103.86 -23.94C103.9 -24.14 103.86 -24.31 103.74 -24.45C103.62 -24.59 103.46 -24.66 103.26 -24.66L96.24 -24.66C96.08 -24.66 96 -24.76 96 -24.96L97.2 -34.44C97.2 -34.64 97.3 -34.74 97.5 -34.74L109.68 -34.74C109.88 -34.74 110.05 -34.81 110.19 -34.95Z"></path>
        </g>
    </g>
</svg>